<svg width="16" height="16" viewBox="0 0 32 32" fill="none" xmlns="http://www.w3.org/2000/svg">
  <path d="M25.2 5.3H22c-0.5 0-0.9 0.4-0.9 0.9s0.4 0.9 0.9 0.9h3.2c1 0 1.8 0.8 1.8 1.7v1.3H3.9v-1.3c0-0.9 0.8-1.7 1.8-1.7H9.2c0.5 0 0.9-0.4 0.9-0.9s-0.4-0.9-0.9-0.9H5.7c-2 0-3.7 1.6-3.7 3.5v16.5c0 2 1.7 3.5 3.7 3.5h19.5c2 0 3.7-1.6 3.7-3.5V8.9c0-2-1.7-3.6-3.7-3.6z m0 21.7H5.7c-1 0-1.8-0.8-1.8-1.7V12.1h23.1v13.2c0 0.9-0.8 1.7-1.8 1.7z" fill="var(--icon-base-color, #4d4d4d)" />
  <path d="M14 6.8c-0.4-0.2-0.8-0.1-1.1 0.2-0.1-0.2-0.1-0.5-0.1-0.9 0-0.4 0.1-0.7 0.1-0.9 0.3 0.3 0.7 0.3 1.1 0.1 0.4-0.3 0.6-0.8 0.3-1.3-0.5-0.8-1.1-0.9-1.5-0.9-1.1 0-2 1.3-2 3.1s0.8 3.1 2 3.1c0.6 0 1.2-0.4 1.6-1.1 0.2-0.5 0-1-0.4-1.3zM19.9 6.8c-0.4-0.2-0.8-0.1-1.1 0.2-0.1-0.2-0.1-0.5-0.1-0.9 0-0.4 0.1-0.7 0.1-0.9 0.3 0.3 0.7 0.3 1.1 0.1 0.4-0.3 0.6-0.8 0.3-1.3-0.5-0.8-1.1-0.9-1.5-0.9-1.1 0-2 1.3-2 3.1s0.8 3.1 2 3.1c0.6 0 1.2-0.4 1.6-1.1 0.2-0.5 0-1-0.4-1.3z" fill="var(--icon-base-color, #4d4d4d)" />
  <path d="M21.9 16.1H6.3c-0.5 0-0.9 0.4-0.9 0.9s0.4 0.9 0.9 0.9h15.6c0.5 0 0.9-0.4 0.9-0.9s-0.4-0.9-0.9-0.9zM20.9 21.6h-2.3c-0.5 0-0.9 0.4-0.9 0.9s0.4 0.9 0.9 0.9h2.3c0.5 0 0.9-0.4 0.9-0.9s-0.4-0.9-0.9-0.9zM15 21.6H6.3c-0.5 0-0.9 0.4-0.9 0.9s0.4 0.9 0.9 0.9H15c0.5 0 0.9-0.4 0.9-0.9s-0.4-0.9-0.9-0.9z" fill="var(--icon-accent-color, #00a3d3)" />
</svg>