<svg width="800" height="656" viewBox="0 0 800 656" fill="none" xmlns="http://www.w3.org/2000/svg">
<path d="M669.08 240.425L578.997 331.172H670.136V240.358L669.08 240.425Z" fill="#898F94"/>
<path d="M159.278 331.172H202.986L184.881 287.649C184.452 286.605 184.271 285.539 183.932 284.495C177.354 264.244 187.176 241.962 207.152 233.639L207.242 233.599L207.112 233.545C196.942 229.325 189.009 221.41 184.752 211.186C180.544 201.04 180.519 189.839 184.712 179.603L204.976 130.479C211.41 114.993 226.4 104.991 243.173 104.991C248.59 104.991 253.89 106.048 258.917 108.118L259.021 108.158L258.971 108.041C257.317 104.042 256.535 99.9412 256.17 95.8386C247.027 90.8756 236.712 87.7894 225.577 87.7894H64.479C28.8724 87.7878 0 116.66 0 152.268V184.475V284.495V558.964L81.4746 381.104C95.3708 350.772 125.91 331.172 159.278 331.172Z" fill="#898F94"/>
<path d="M248.75 132.77C246.925 132.015 245.036 131.663 243.174 131.663C237.418 131.663 231.949 135.075 229.604 140.715L209.364 189.774C207.892 193.37 207.905 197.393 209.391 200.976C210.887 204.569 213.742 207.423 217.321 208.906L245.18 220.38C244.359 229.08 244.322 237.882 245.18 246.7L217.402 258.265C209.953 261.364 206.411 269.947 209.51 277.41L229.904 326.418C230.739 328.438 232.339 329.78 233.852 331.172H256.577L276.79 322.759C279.37 325.845 282.456 328.334 285.269 331.172H361.821L367.07 325.885C336.192 320.075 309.859 299.368 297.459 269.569C287.785 246.297 287.744 220.654 297.355 197.355C306.954 174.056 325.057 155.901 348.33 146.225C359.908 141.395 372.111 138.946 384.563 138.946C422.799 138.946 456.998 161.775 471.69 197.093C474.125 202.928 475.936 208.92 477.157 214.988L542.824 148.817L539.255 140.234C536.91 134.608 531.44 131.209 525.711 131.209C523.832 131.209 521.945 131.574 520.11 132.329L492.332 143.88C486.666 137.057 480.378 130.87 473.642 125.321L485.129 97.4655C486.612 93.8695 486.602 89.8457 485.116 86.2664C483.617 82.6838 480.779 79.8325 477.157 78.3347L428.121 58.1203C426.296 57.3655 424.396 57.0133 422.534 57.0133C416.778 57.0133 411.322 60.4249 409.004 66.0638L397.503 93.95C393.101 93.5441 388.674 93.3227 384.234 93.3227C379.896 93.3227 375.534 93.5306 371.156 93.96L359.605 66.1812C357.26 60.5557 351.817 57.1576 346.101 57.1576C344.226 57.1576 342.324 57.5198 340.487 58.288L291.491 78.6584C284.043 81.7714 280.5 90.3405 283.6 97.8043L295.165 125.583C288.315 131.235 282.127 137.513 276.579 144.259L248.75 132.77Z" fill="#FF6B35"/>
<path d="M384.557 165.618C375.636 165.618 366.898 167.376 358.563 170.841C341.88 177.781 328.896 190.819 322.006 207.528C315.117 224.235 315.141 242.639 322.083 259.333C333.648 287.139 363.469 303.276 392.657 300.099L451.562 240.764C452.824 229.511 451.536 218.077 447.067 207.331C436.521 182 411.984 165.618 384.557 165.618Z" fill="#FF6B35"/>
<path d="M770.299 87.2276L728.077 129.748C720.652 137.223 708.606 137.25 701.13 129.828C649.441 78.5545 650.324 91.7226 712.108 29.4694C727.973 13.5002 681.203 -14.5772 647.943 9.15274C584.438 54.3432 589.869 61.6225 585.78 143.399L399.403 331.172H541.41L657.345 214.377L708.24 211.459C734.966 209.936 759.551 196.261 774.933 174.316L791.121 151.24C814.384 118.029 786.397 71.0286 770.299 87.2276Z" fill="#0284C7"/>
<path d="M729.171 371.18H159.278C141.447 371.18 125.273 381.57 117.851 397.774L17.2036 617.467C13.4398 625.672 14.1175 635.231 18.9882 642.824C23.8724 650.415 32.2738 655.012 41.3109 655.012H653.115C663.496 655.012 672.912 648.969 677.221 639.54L770.599 435.722C777.06 421.618 775.899 405.196 767.513 392.132C759.137 379.071 744.682 371.18 729.171 371.18Z" fill="#A7ABAF"/>
</svg>
